<svg xmlns="http://www.w3.org/2000/svg" width="18" height="18" viewBox="0 0 18 18">
    <g fill="none" fill-rule="evenodd">
        <g>
            <g>
                <g>
                    <g>
                        <g>
                            <g>
                                <path d="M0 0H18V18H0z" transform="translate(-1195 -407) translate(0 157) translate(1176 47) translate(0 172) translate(19 31)"/>
                                <path fill="#0ABD3E" fill-rule="nonzero" d="M8 5.75V9.5l3.188 1.89.577-.96-2.64-1.567V5.75H8zm7.5 1.5V2l-1.98 1.98C12.305 2.757 10.618 2 8.75 2 5.022 2 2 5.022 2 8.75c0 3.727 3.022 6.75 6.75 6.75 3.727 0 6.75-3.023 6.75-6.75H14C14 11.645 11.645 14 8.75 14S3.5 11.645 3.5 8.75 5.855 3.5 8.75 3.5c1.447 0 2.76.593 3.713 1.537L10.25 7.25h5.25z" transform="translate(-1195 -407) translate(0 157) translate(1176 47) translate(0 172) translate(19 31)"/>
                            </g>
                        </g>
                    </g>
                </g>
            </g>
        </g>
    </g>
</svg>
